<?xml version="1.0" standalone="no"?>
<!DOCTYPE svg PUBLIC "-//W3C//DTD SVG 20010904//EN"
 "http://www.w3.org/TR/2001/REC-SVG-20010904/DTD/svg10.dtd">
<svg version="1.0" xmlns="http://www.w3.org/2000/svg"
 width="5000.000000pt" height="3334.000000pt" viewBox="0 0 5000.000000 3334.000000"
 preserveAspectRatio="xMidYMid meet">

<g transform="translate(0.000000,3334.000000) scale(0.100000,-0.100000)"
fill="#000000" stroke="none">
<path d="M2350 33133 c1 -115 1 -315 1 -446 l-1 -238 -582 1 c-321 1 -850 1
-1175 1 l-593 -1 0 -60 0 -60 1171 0 c645 0 1174 -2 1176 -4 7 -6 4 -2626 -2
-2636 -2 -4 -485 -8 -1072 -8 -588 0 -1114 -1 -1170 -1 l-103 -1 0 -60 0 -61
798 1 c438 0 967 0 1175 0 l377 0 -2 -1322 -3 -1323 -1050 -2 c-577 -1 -1105
-2 -1172 -3 l-123 0 0 -60 0 -60 1175 0 c1112 0 1175 -1 1175 -17 3 -437 -2
-2618 -6 -2624 -3 -5 -387 -9 -932 -9 -510 1 -1036 1 -1169 0 l-243 0 0 -59 0
-59 1171 2 c644 0 1173 -2 1175 -6 6 -10 5 -2630 -1 -2636 -2 -3 -530 -6
-1172 -7 l-1168 -2 -3 -56 -3 -57 128 -1 c70 0 576 -2 1123 -3 547 -2 1019 -4
1048 -5 l52 -1 0 -1320 0 -1320 -1175 0 -1175 0 0 -60 0 -60 203 0 c1002 1
2015 -3 2075 -8 l72 -5 0 -1318 0 -1319 -1175 0 -1175 0 0 -60 c0 -33 3 -61 8
-61 4 -1 531 -2 1172 -3 l1165 -1 3 -1323 2 -1322 -387 0 c-214 0 -742 0
-1175 0 l-788 0 0 -60 0 -60 63 0 c34 0 561 -2 1172 -3 l1110 -2 5 -680 c3
-374 4 -969 2 -1322 l-2 -643 -1175 0 -1175 0 0 -60 0 -60 153 0 c83 0 612 0
1175 0 l1022 0 0 -1325 0 -1325 -1175 0 -1175 0 0 -60 0 -60 1175 0 1175 0 0
-1325 0 -1325 -1175 0 -1175 0 0 -60 0 -60 1175 0 1175 0 1 -87 c0 -49 0 -113
1 -143 0 -30 0 -587 -1 -1237 l-1 -1183 -1175 0 -1175 0 0 -60 0 -60 1175 0
1175 0 0 -935 0 -935 65 0 65 0 0 935 0 935 1393 -2 1392 -3 3 -933 2 -932 60
0 60 0 2 53 c0 28 2 439 3 912 2 473 3 870 4 883 l1 22 1390 0 1390 0 0 -935
0 -935 65 0 65 0 0 935 0 935 1393 -2 1392 -3 2 -850 c2 -467 3 -887 3 -932
l0 -83 65 0 65 0 -1 493 c0 270 0 691 0 935 l1 442 1390 0 1390 0 0 -935 0
-935 65 0 65 0 0 935 0 935 1393 -2 1392 -3 2 -825 c2 -454 3 -873 3 -932 l0
-108 65 0 64 0 0 922 c0 508 0 929 0 936 1 9 286 12 1391 12 l1390 0 0 -935 0
-935 65 0 65 0 0 935 0 935 1392 -2 1391 -3 1 -930 1 -930 68 -3 68 -3 -2 933
-2 933 1392 3 1391 2 0 -935 0 -935 65 0 65 0 0 935 0 935 1393 -2 1392 -3 2
-930 1 -930 64 -3 63 -3 0 933 0 933 1393 3 1392 2 0 -935 0 -935 65 0 65 0 2
932 3 933 1388 3 1387 2 1 -37 c0 -21 0 -442 0 -936 l-1 -897 65 0 65 0 1 38
c1 20 2 440 3 932 l1 895 1390 0 1390 0 3 -933 2 -932 65 0 65 0 0 935 0 935
1390 0 1390 0 1 -137 c0 -76 1 -497 2 -935 l2 -798 63 0 62 0 0 58 c0 31 2
451 3 932 l2 875 1393 3 1392 2 0 -935 0 -935 65 0 65 0 0 935 0 935 1391 -2
1392 -3 -1 -932 -1 -933 64 0 65 0 2 932 3 933 1390 0 1390 0 3 -933 2 -932
65 0 65 0 2 932 3 933 438 3 437 2 0 60 0 60 -440 0 -440 0 2 1323 3 1322 438
3 437 2 0 60 0 60 -440 0 -440 0 0 1325 0 1325 440 0 440 0 0 60 0 60 -440 0
-440 0 0 1325 0 1325 440 0 440 0 0 60 0 60 -440 0 -440 0 2 1323 3 1322 438
3 437 2 0 60 0 60 -440 0 -440 0 2 1323 3 1322 437 0 438 0 0 63 0 62 -440 0
-440 0 2 1323 3 1322 438 3 437 2 0 60 0 60 -440 0 -440 0 0 1320 0 1320 33 1
c17 0 212 2 432 4 220 2 403 4 408 4 4 1 7 27 7 59 l0 58 -427 1 c-236 1 -434
2 -440 2 -10 1 -13 272 -13 1321 l0 1320 440 0 440 0 0 64 0 63 -437 0 -438
-1 -3 1322 -2 1322 440 0 440 0 0 63 0 62 -438 0 -437 0 -3 1323 -2 1322 440
0 440 0 0 63 0 62 -440 -3 -440 -3 0 1326 0 1325 440 0 440 0 0 60 0 60 -437
2 -438 3 -3 443 -2 442 -65 0 -65 0 -2 -442 -3 -443 -1390 0 -1390 0 -3 443
-2 442 -60 0 -60 0 0 -67 c0 -38 0 -231 -1 -431 0 -199 -2 -369 -5 -377 -5
-13 -177 -15 -1395 -15 l-1389 0 0 445 0 445 -65 0 -65 0 -2 -442 -3 -443
-1390 0 -1390 1 -1 439 -2 440 -65 3 -66 3 2 -433 c1 -238 -1 -437 -5 -443 -4
-7 -465 -9 -1355 -8 -741 0 -1365 1 -1385 2 l-38 1 0 440 0 440 -65 0 -65 0 0
-440 0 -440 -97 -1 c-672 -4 -2636 -6 -2660 -2 l-32 5 0 396 c0 219 0 416 0
440 l-1 42 -65 0 -65 0 2 -433 c1 -239 -2 -438 -5 -444 -4 -6 -493 -9 -1389
-8 l-1383 2 -3 442 -2 441 -65 0 -65 0 0 -439 c0 -342 -3 -440 -12 -444 -10
-3 -2483 -2 -2724 2 l-50 1 0 438 0 437 -62 3 -62 3 -1 -78 c0 -43 -1 -242 -2
-443 l-2 -365 -1365 -2 c-751 0 -1377 1 -1392 4 l-28 5 0 439 0 439 -65 0 -65
0 -2 -441 -3 -441 -1389 -2 -1388 -1 1 443 1 442 -69 0 -69 0 2 -442 1 -443
-1390 0 -1390 0 -3 443 -2 442 -65 0 -65 0 -2 -442 -3 -443 -1390 0 -1390 0
-3 443 -2 442 -60 0 -60 0 -2 -442 -3 -443 -1390 0 -1390 0 -3 443 -2 442 -65
0 -65 0 -2 -442 -3 -443 -1387 -2 -1388 -2 0 102 c-1 56 -1 256 0 445 l0 342
-65 0 -65 0 0 -440 0 -440 -22 -5 c-13 -3 -639 -4 -1393 -3 l-1370 3 -3 443
-2 442 -65 0 -65 0 0 -445 0 -445 -1392 2 -1393 3 0 443 0 442 -62 0 -63 0 -2
-442 -3 -443 -1390 0 -1390 0 -3 443 -2 442 -66 0 -65 0 1 -207z m910 -744 c0
-5 -4 -9 -10 -9 -5 0 -10 7 -10 16 0 8 5 12 10 9 6 -3 10 -10 10 -16z m1518
-59 l492 0 0 -1320 0 -1319 -32 -6 c-18 -3 -645 -5 -1393 -3 l-1360 3 -3 1322
-2 1323 342 2 c189 2 595 2 903 1 308 -2 782 -3 1053 -3z m3400 -1323 l-3
-1322 -1390 0 -1390 0 0 1320 0 1320 950 5 c523 3 1149 4 1393 2 l442 -2 -2
-1323z m5832 1185 c1 -1872 -1 -2496 -6 -2501 -3 -3 -629 -6 -1390 -6 l-1384
0 -1 60 c-1 33 -1 580 0 1215 1 635 1 1203 1 1262 l0 108 1248 2 c686 2 1311
2 1390 0 l142 -3 0 -137z m-2912 -1180 c2 -1243 1 -1313 -15 -1320 -10 -4
-637 -7 -1393 -7 l-1375 0 -3 1323 -2 1322 1392 -2 1393 -3 3 -1313z m5830 -4
l-3 -1323 -1390 0 -1390 0 -3 1323 -2 1322 1395 0 1395 0 -2 -1322z m2912 2
l0 -1320 -132 -1 c-73 -1 -700 -1 -1393 -2 l-1260 -1 -1 1315 c-1 723 0 1317
3 1322 2 4 629 7 1394 7 l1389 0 0 -1320z m2912 1308 c3 -11 3 -2536 -1 -2608
l-1 -25 -1378 1 c-757 0 -1383 2 -1389 2 -10 2 -13 274 -13 1322 l0 1320 1389
0 c1102 0 1390 -3 1393 -12z m2918 -1308 l0 -1320 -262 -1 c-1385 -2 -2509 -1
-2514 3 -3 4 -9 2594 -5 2631 1 4 627 7 1391 7 l1390 0 0 -1320z m2916 0 c1
-723 -2 -1317 -6 -1320 -7 -4 -1502 -5 -2442 -1 l-338 1 0 1320 0 1320 1393
-2 1392 -3 1 -1315z m2914 0 c0 -726 -3 -1320 -7 -1321 -5 0 -628 -1 -1386 -2
-984 -2 -1381 1 -1388 9 -8 10 -9 2506 -1 2595 l4 39 1389 0 1389 0 0 -1320z
m2912 1278 c6 -54 -2 -2591 -8 -2598 -6 -5 -2635 -7 -2716 -1 l-58 3 0 1319 0
1319 1389 0 1388 0 5 -42z m2918 -1278 l0 -1320 -822 0 c-730 -1 -1104 -1
-1773 0 l-190 0 -2 1312 c-1 721 0 1315 3 1320 3 4 630 8 1395 8 l1389 0 0
-1320z m2915 -2 l5 -1318 -23 -5 c-12 -3 -638 -4 -1392 -3 l-1370 3 -3 1323
-2 1322 1390 -2 1391 -3 4 -1317z m2915 3 l0 -1319 -27 -5 c-16 -3 -642 -5
-1393 -4 l-1365 2 -1 1300 c0 715 1 1310 4 1323 l4 22 1389 0 1389 0 0 -1319z
m2915 -6 l-1 -1320 -1389 0 -1390 0 -3 1323 -2 1322 1392 -2 1393 -3 0 -1320z
m2915 5 c0 -1250 -1 -1320 -17 -1321 -62 -4 -2741 -6 -2755 -3 -17 5 -18 77
-18 1325 l0 1319 1395 0 1395 0 0 -1320z m-45190 -1394 c0 -3 -4 -8 -10 -11
-5 -3 -10 -1 -10 4 0 6 5 11 10 11 6 0 10 -2 10 -4z m123 -33 c-18 -2 -33 -9
-33 -14 0 -6 133 -9 348 -9 191 1 501 1 690 1 l342 -1 -2 -1322 -3 -1323
-1380 0 c-759 0 -1386 1 -1392 3 -10 3 -13 277 -13 1323 l0 1318 697 3 c546 2
697 6 701 16 2 7 19 11 40 10 l37 -1 -32 -4z m4255 -1346 l-3 -1322 -1379 -2
c-923 -2 -1383 0 -1391 7 -10 8 -13 301 -13 1325 l-1 1315 1002 2 c551 2 1179
2 1395 0 l392 -2 -2 -1323z m8750 0 l-3 -1322 -1390 1 -1390 1 -3 1321 -2
1322 492 2 c271 2 899 2 1396 0 l902 -2 -2 -1323z m-5831 1 l-2 -1323 -1380
-1 c-758 -1 -1385 0 -1392 3 -11 4 -13 257 -13 1324 l0 1319 1395 0 1394 0 -2
-1322z m2911 0 l-3 -1323 -1387 -1 -1388 -1 -1 26 c0 23 0 2538 1 2599 l0 22
1390 0 1390 0 -2 -1322z m5832 3 l0 -1319 -22 -5 c-13 -3 -639 -5 -1393 -4
l-1370 2 -1 1323 -1 1322 1394 0 1393 0 0 -1319z m2915 -6 l0 -1320 -1390 0
-1390 0 -3 1323 -2 1322 1392 -2 1393 -3 0 -1320z m2915 5 l0 -1320 -22 -1
c-13 -1 -636 -3 -1385 -5 -982 -2 -1365 1 -1370 9 -4 7 -8 2602 -3 2635 0 1
626 2 1390 2 l1390 0 0 -1320z m2917 0 c0 -723 -3 -1317 -8 -1320 -4 -3 -630
-5 -1391 -5 l-1383 0 -3 1323 -2 1322 1392 -2 1393 -3 2 -1315z m2913 1 l0
-1319 -42 -5 c-24 -3 -650 -4 -1393 -3 l-1349 4 -3 1308 c-2 720 -1 1314 1
1321 4 11 273 13 1396 13 l1390 0 0 -1319z m2911 1282 c2 -21 4 -616 4 -1322
l0 -1283 -1370 -2 c-753 -1 -1380 0 -1392 2 l-23 4 0 1319 0 1319 1389 0 1389
0 3 -37z m2919 -1283 l0 -1320 -32 0 c-18 0 -645 -1 -1393 -3 l-1360 -2 -2
1310 c-1 721 0 1316 2 1323 3 9 291 12 1395 12 l1390 0 0 -1320z m2919 6 c0
-1027 -2 -1316 -12 -1324 -8 -7 -451 -9 -1347 -7 -734 1 -1356 3 -1382 4 l-48
1 0 1320 0 1320 1394 0 1394 0 1 -1314z m2911 -5 l0 -1319 -25 -6 c-44 -11
-2739 -5 -2752 6 -10 8 -13 285 -13 1324 l0 1314 1395 0 1395 0 0 -1319z
m2918 -3 l-3 -1323 -1392 -2 -1393 -2 0 1325 0 1324 1395 0 1395 0 -2 -1322z
m2910 0 l-3 -1323 -1390 0 -1390 0 -3 1323 -2 1322 1395 0 1395 0 -2 -1322z
m-40910 -1448 l102 0 -2 -1322 -3 -1322 -1380 -2 c-759 -2 -1384 1 -1390 6 -7
6 -10 442 -10 1322 l0 1313 815 5 c448 3 1029 4 1290 3 261 -2 521 -3 578 -3z
m1765 1 l1257 -1 0 -1314 c0 -1041 -3 -1317 -12 -1323 -14 -8 -2675 -14 -2740
-5 l-38 5 0 1318 0 1318 78 3 c42 2 104 2 137 1 33 -1 626 -2 1318 -2z m4164
-5 c6 -6 3 -2629 -3 -2635 -9 -9 -2764 -8 -2770 1 -3 4 -6 599 -6 1320 l-2
1313 615 5 c617 5 2160 2 2166 -4z m5831 -1319 l-3 -1322 -1390 0 -1390 0 0
1320 0 1320 245 5 c135 3 761 4 1393 2 l1147 -2 -2 -1323z m2385 1323 l537 0
-2 -1322 -3 -1323 -1390 0 -1390 0 -3 1322 -2 1323 622 2 c343 2 729 2 858 1
129 -1 477 -2 773 -3z m3260 0 l187 0 0 -1320 c0 -726 -1 -1320 -2 -1321 -2
-1 -627 -3 -1390 -5 -1318 -4 -1387 -3 -1391 13 -3 10 -4 605 -3 1323 l1 1305
1085 5 c597 3 1139 4 1205 3 66 -2 204 -3 308 -3z m16670 0 l1007 0 0 -1320 0
-1320 -22 -4 c-13 -3 -639 -4 -1393 -3 l-1370 2 0 1320 0 1320 50 5 c28 3 201
4 385 3 184 -2 788 -3 1343 -3z m-36885 -1322 l-3 -1323 -1390 0 -1390 0 -3
1323 -2 1322 1395 0 1395 0 -2 -1322z m11660 0 l-3 -1323 -1335 -1 c-734 -1
-1361 1 -1392 4 l-58 5 0 1318 0 1319 1395 0 1395 0 -2 -1322z m11657 -3 l0
-1320 -1390 1 -1390 0 -3 1322 -2 1322 1392 -2 1393 -3 0 -1320z m2915 5 l0
-1320 -277 -1 c-153 0 -780 -1 -1393 -2 l-1115 -2 -1 1315 c-1 723 0 1318 3
1323 2 4 629 7 1394 7 l1389 0 0 -1320z m2913 -3 l0 -1318 -1344 0 c-739 0
-1365 0 -1391 0 l-48 1 0 1320 0 1320 1391 -2 1392 -3 0 -1318z m2915 1 l-3
-1323 -1390 2 -1390 2 -3 1321 -2 1320 1395 0 1395 0 -2 -1322z m2921 8 c-1
-722 -4 -1318 -8 -1324 -4 -6 -474 -9 -1391 -8 l-1385 1 -3 1323 -2 1322 1395
0 1395 0 -1 -1314z m5828 -1 c1 -858 -1 -1313 -8 -1321 -8 -9 -329 -12 -1394
-12 l-1385 0 0 1324 0 1324 1393 -2 1392 -3 2 -1310z m2911 -7 l-3 -1323
-1390 0 -1390 0 -3 1323 -2 1322 1395 0 1395 0 -2 -1322z m-43920 -1448 l202
0 -2 -1322 -3 -1323 -1387 0 c-762 0 -1389 2 -1392 5 -7 8 -7 68 -7 1415 l1
1230 1192 -2 c656 -1 1284 -2 1396 -3z m3065 0 l47 0 0 -1320 0 -1320 -127 -1
c-781 -6 -2646 -2 -2652 6 -6 8 -8 2482 -2 2607 l1 28 458 2 c251 2 855 2
1342 1 487 -2 906 -3 933 -3z m2954 -4 c9 -4 12 -308 11 -1316 -1 -721 -5
-1313 -9 -1316 -11 -6 -2749 -12 -2766 -6 -10 3 -13 277 -13 1321 0 725 2
1320 4 1322 6 6 2758 0 2773 -5z m2136 4 l787 0 0 -1320 0 -1320 -192 -1
c-441 -2 -2582 2 -2585 4 -2 3 -5 2310 -3 2584 l0 53 528 2 c290 2 561 2 602
1 41 -1 429 -2 863 -3z m3665 0 l42 0 0 -1319 0 -1319 -44 -3 c-39 -4 -1493
-3 -2423 0 l-323 1 0 1320 0 1320 368 2 c275 2 2062 1 2380 -2z m2950 -1320
l2 -1320 -137 -1 c-132 -1 -2602 0 -2633 1 -13 0 -15 153 -15 1318 l0 1317
300 5 c165 3 791 4 1390 3 l1090 -3 3 -1320z m2920 34 c1 -709 0 -1305 -3
-1324 l-6 -35 -1337 2 c-735 1 -1361 2 -1389 2 l-53 1 0 1318 c0 725 2 1321 4
1323 2 2 629 3 1393 3 l1388 -2 3 -1288z m2255 1286 l657 0 0 -1320 c0 -1250
-1 -1320 -17 -1321 -103 -4 -2738 -2 -2751 2 -16 6 -17 89 -18 1315 0 720 3
1314 7 1319 5 7 259 9 736 7 400 -1 1024 -2 1386 -2z m3555 0 l23 0 -2 -1315
c-1 -778 -5 -1317 -10 -1321 -5 -3 -631 -6 -1392 -7 l-1382 -2 -3 1315 c-1
723 0 1320 2 1325 2 7 467 9 1372 8 753 -1 1379 -3 1392 -3z m2185 0 l747 0 0
-1320 0 -1320 -507 0 c-1254 -1 -2266 1 -2272 4 -11 7 -14 2628 -3 2635 6 3
297 5 649 4 351 -2 974 -3 1386 -3z m3653 -4 c9 -3 12 -334 12 -1278 0 -700
-2 -1293 -4 -1318 l-5 -45 -1262 1 c-694 1 -1319 2 -1389 3 l-128 1 0 1320 0
1320 398 2 c549 4 2364 -1 2378 -6z m2852 5 l72 -1 0 -1318 0 -1319 -137 -6
c-109 -4 -2616 -3 -2646 2 -4 0 -7 595 -7 1321 l1 1320 1242 2 c683 2 1278 2
1322 1 44 -1 113 -2 153 -2z m2978 -5 c8 -3 12 -357 12 -1319 1 -1113 -1
-1316 -12 -1320 -8 -3 -635 -5 -1393 -3 l-1378 2 -3 1322 -2 1322 192 2 c283
4 2571 -2 2584 -6z m2922 -1313 c1 -862 -1 -1319 -8 -1323 -5 -3 -632 -6
-1392 -6 l-1383 1 -3 1322 -2 1322 127 3 c71 2 697 2 1393 1 l1265 -2 3 -1318z
m2907 1313 c7 -2 11 -454 13 -1319 3 -1263 3 -1315 -15 -1320 -23 -7 -2536 -6
-2671 1 l-102 5 0 1317 c0 724 2 1319 4 1321 5 5 2757 0 2771 -5z m2418 4
l507 0 -2 -1321 -3 -1322 -1380 -2 c-759 -1 -1386 0 -1392 3 -10 3 -13 277
-13 1321 0 725 2 1320 4 1322 2 2 402 3 888 2 485 -1 1111 -3 1391 -3z
m-43215 -4087 l2 -1323 -1395 0 -1395 0 0 1318 c0 725 2 1321 5 1324 3 3 630
5 1393 4 l1387 -1 3 -1322z m2910 0 l2 -1323 -1390 0 -1390 0 0 48 c-3 220 -5
2594 -2 2596 1 2 627 3 1390 2 l1387 -1 3 -1322z m2908 1314 c9 -5 11 -362 10
-1319 l-1 -1313 -270 -5 c-148 -3 -775 -4 -1392 -2 l-1123 2 0 1319 0 1320 38
3 c77 6 2728 2 2738 -5z m2922 -1316 l2 -1321 -1390 0 c-1317 0 -1390 1 -1390
18 -1 17 0 2540 0 2594 0 20 6 27 23 30 12 2 636 2 1387 2 l1365 -2 3 -1321z
m2920 2 l2 -1323 -1395 0 -1395 0 0 1319 0 1320 48 3 c26 2 652 3 1392 3
l1345 0 3 -1322z m2885 1318 l27 -1 0 -1320 0 -1320 -262 0 c-1527 -1 -2512 1
-2518 5 -5 3 -6 2640 -1 2640 729 0 2734 -3 2754 -4z m2934 -4 c4 -5 9 -600
11 -1323 l2 -1314 -1395 0 -1395 0 0 1319 c0 871 3 1320 10 1323 23 7 2759 2
2767 -5z m2821 3 l102 0 0 -1320 0 -1320 -1390 0 -1390 0 -1 28 c-4 78 -5
2599 -2 2608 4 10 901 12 2681 4z m3010 -4 c6 -4 10 -458 10 -1321 l1 -1315
-1394 0 -1395 0 0 1319 0 1320 38 3 c71 6 2730 1 2740 -6z m1985 4 l937 0 0
-1320 0 -1320 -1392 2 -1393 3 0 1317 c0 1310 0 1317 20 1320 11 2 216 2 455
1 239 -2 857 -3 1373 -3z m3852 -1260 c0 -696 -1 -1291 -3 -1322 l-4 -58
-1389 0 -1389 0 0 1320 0 1319 108 3 c59 2 685 3 1392 3 l1285 0 0 -1265z
m2908 1261 c4 -1 7 -595 7 -1321 l0 -1320 -1395 0 -1394 0 -1 1318 c0 725 2
1321 6 1324 4 5 2742 3 2777 -1z m2924 -1318 l2 -1323 -327 0 c-180 0 -583 0
-897 0 -313 0 -794 0 -1067 0 l-498 0 0 1318 c0 725 3 1321 6 1324 3 3 629 5
1392 4 l1387 -1 2 -1322z m2908 1316 c6 -8 7 -2630 2 -2636 -3 -2 -1560 -5
-2494 -3 l-293 0 0 1318 c0 725 3 1321 6 1325 8 8 2774 5 2779 -4z m2923
-1316 l2 -1323 -1137 -1 c-626 0 -1253 0 -1393 0 l-255 0 -3 1320 -2 1320 42
3 c24 2 651 4 1393 3 l1350 0 3 -1322z m2880 1318 l32 -1 0 -1320 0 -1320
-1015 -1 c-558 0 -1040 0 -1070 0 -30 0 -201 0 -380 0 l-325 1 0 1318 c0 725
3 1321 6 1325 5 4 2622 3 2752 -2z m-43690 -4088 l2 -1323 -1395 0 -1395 0 0
1318 c0 725 2 1321 5 1324 3 3 630 5 1393 4 l1387 -1 3 -1322z m2910 0 l2
-1323 -1390 0 -1390 0 -1 43 c-3 251 0 2587 4 2594 4 5 564 9 1389 9 l1383 -1
3 -1322z m2917 2 l0 -1320 -1392 -3 -1393 -2 0 1319 c0 1249 1 1320 18 1323 9
2 636 4 1392 3 l1375 0 0 -1320z m2910 1316 c4 -7 7 -1539 5 -2473 l0 -168
-1390 0 -1390 0 0 23 c0 12 -1 604 -2 1315 -1 1070 1 1295 12 1302 17 11 2758
11 2765 1z m2920 -1316 l0 -1320 -1392 -3 -1393 -2 0 282 c-1 1625 1 2352 5
2358 3 5 629 7 1393 7 l1387 -2 0 -1320z m2913 -2 l2 -1323 -1394 0 -1395 0 0
1317 c0 941 3 1319 11 1324 6 4 632 6 1392 6 l1381 -2 3 -1322z m2919 0 l1
-1323 -1394 0 -1394 0 0 1318 c0 725 3 1321 6 1324 3 3 629 5 1392 4 l1387 -1
2 -1322z m2861 1318 l52 -1 0 -1320 0 -1320 -1392 0 -1393 0 1 1318 c0 724 1
1320 2 1324 2 5 2469 4 2730 -1z m2969 -1318 l2 -1323 -1077 -2 c-592 -2
-1220 -2 -1394 0 l-318 2 0 1320 0 1319 38 3 c20 2 647 3 1392 3 l1355 0 2
-1322z m2911 0 l2 -1323 -217 -2 c-120 -2 -748 -2 -1395 0 l-1178 2 0 1319 c1
725 3 1321 6 1323 3 3 629 5 1392 4 l1387 -1 3 -1322z m2908 1319 c9 -5 12
-345 10 -1322 l-1 -1315 -1392 -3 -1393 -2 0 1319 0 1320 28 3 c52 8 2737 7
2748 0z m2922 -1319 l2 -1323 -1395 0 -1395 0 0 1319 c0 725 3 1321 7 1325 4
3 630 5 1392 4 l1386 -3 3 -1322z m2917 2 l0 -1320 -1392 -3 -1393 -2 0 1318
c0 725 3 1321 6 1325 4 3 630 5 1393 4 l1386 -2 0 -1320z m2913 -2 l2 -1323
-1395 0 -1395 0 0 1318 c0 725 3 1322 7 1325 3 4 630 6 1392 5 l1386 -3 3
-1322z m2919 0 l3 -1323 -1395 0 -1395 0 0 1325 0 1325 1393 -3 1392 -2 2
-1322z m2911 0 l2 -1323 -1395 0 -1395 0 0 1318 c0 725 3 1322 7 1325 3 4 630
6 1392 5 l1386 -3 3 -1322z m-43720 -2771 l2 -1322 -1395 0 -1395 0 0 1318 c0
725 2 1321 6 1324 3 3 629 5 1392 4 l1387 -2 3 -1322z m2900 1320 c9 -2 12
-274 12 -1322 l0 -1320 -1394 0 -1394 0 3 1308 c2 719 3 1312 4 1319 1 6 16
13 34 15 34 3 2713 3 2735 0z m2929 -1319 l2 -1323 -1394 0 -1395 0 0 1319 0
1320 33 3 c17 2 644 3 1392 3 l1360 0 2 -1322z m2909 1316 c5 -9 6 -2630 1
-2636 -5 -5 -2770 -4 -2775 1 -3 4 -6 2601 -3 2637 1 10 2771 8 2777 -2z
m2922 -1316 l2 -1323 -197 0 c-109 0 -453 0 -765 0 -390 0 -569 -3 -573 -10
-5 -8 -11 -8 -20 0 -7 6 -28 10 -47 9 -18 -2 -293 -2 -610 -1 l-578 2 0 311
c0 245 -3 309 -12 303 -10 -6 -10 -4 0 7 9 10 12 227 12 1015 0 947 1 1003 18
1006 9 2 636 4 1392 4 l1375 -1 3 -1322z m2895 1321 c16 -5 17 -77 17 -1325
l0 -1319 -1127 -2 c-621 -2 -1248 -2 -1395 0 l-266 3 0 1319 1 1319 21 3 c39
6 2731 8 2749 2z m2919 0 c16 -5 17 -91 17 -1325 l0 -1319 -1395 0 -1394 0 0
1319 0 1320 23 3 c37 5 2731 7 2749 2z m2926 -1322 l2 -1322 -1392 2 -1392 3
-1 1305 c0 718 3 1312 7 1321 6 15 120 16 1390 14 l1383 -2 3 -1321z m2917 3
l0 -1320 -1392 -3 -1393 -2 0 1318 c0 725 2 1321 4 1323 2 2 629 4 1393 4
l1388 0 0 -1320z m2913 1316 c1 -1 2 -595 2 -1321 l0 -1320 -1392 2 -1393 3
-3 1310 c-1 720 0 1315 3 1322 3 10 280 12 1392 9 763 -2 1389 -4 1391 -5z
m2917 -1246 c0 -687 -2 -1283 -4 -1322 l-3 -73 -1389 0 -1389 0 0 1319 0 1320
43 3 c23 2 649 3 1392 3 l1350 0 0 -1250z m2753 1245 l162 0 0 -1320 0 -1320
-1392 2 -1393 3 -2 1310 c-2 721 -1 1316 2 1322 3 10 265 12 1232 8 675 -3
1301 -5 1391 -5z m3067 -2 c7 -4 10 -451 9 -1320 l-2 -1313 -1391 -3 -1391 -2
0 1319 0 1320 63 3 c128 6 2702 3 2712 -4z m2923 -1317 l2 -1321 -1392 2
-1391 3 -4 1309 c-2 720 -2 1315 1 1322 4 12 231 13 1393 10 l1388 -3 3 -1322z
m2919 2 l3 -1323 -1395 0 -1395 0 0 1318 c0 725 3 1321 6 1325 3 3 630 5 1392
4 l1387 -2 2 -1322z m2911 0 l2 -1323 -1395 0 -1395 0 0 1318 c0 725 3 1322 7
1326 4 3 630 5 1392 4 l1386 -3 3 -1322z m-33568 -1387 c0 -3 -4 -8 -10 -11
-5 -3 -10 -1 -10 4 0 6 5 11 10 11 6 0 10 -2 10 -4z m-30 -10 c0 -3 -4 -8 -10
-11 -5 -3 -10 -1 -10 4 0 6 5 11 10 11 6 0 10 -2 10 -4z m-10122 -1373 l2
-1323 -1395 0 -1395 0 0 1318 c0 725 3 1321 6 1324 3 4 629 5 1392 5 l1387 -2
3 -1322z m2912 1 l0 -1324 -1390 0 c-1105 0 -1390 3 -1392 13 -3 30 -5 2623
-1 2629 2 4 629 7 1393 7 l1390 -1 0 -1324z m2917 -1 l3 -1323 -1395 0 -1395
0 0 1318 c0 725 2 1321 4 1323 3 3 630 4 1393 4 l1388 0 2 -1322z m2907 1316
c5 -5 8 -961 7 -2071 l-1 -568 -1390 0 c-764 0 -1390 3 -1390 8 -1 12 -2 2626
-1 2634 1 8 2768 5 2775 -3z m2924 -1316 l2 -1323 -1395 0 -1395 0 0 1318 c0
725 2 1321 5 1324 3 2 629 4 1392 4 l1388 -1 3 -1322z m2880 1320 l32 -5 0
-1319 0 -1319 -1207 -2 c-665 -2 -1291 -1 -1393 2 l-185 5 -1 1315 c0 723 3
1317 8 1320 10 7 2701 9 2746 3z m2949 -1315 c1 -725 -2 -1320 -6 -1322 -7 -5
-986 -7 -2493 -6 l-288 0 0 1318 c0 725 2 1321 6 1324 3 3 629 5 1392 4 l1387
-1 2 -1317z m2909 1310 c5 -8 6 -2630 0 -2635 -5 -6 -2769 -3 -2775 3 -7 6
-11 2625 -4 2636 5 10 2773 6 2779 -4z m2921 -1315 l3 -1323 -1395 0 -1395 0
0 1318 c0 725 3 1321 6 1324 3 4 630 5 1392 5 l1387 -2 2 -1322z m2911 -1 l2
-1322 -1395 0 -1394 0 0 1318 c1 724 2 1319 4 1322 2 3 628 5 1392 5 l1388 -1
3 -1322z m2910 1313 c8 -7 13 -2505 5 -2577 l-6 -58 -1388 0 -1389 0 0 1318
c0 725 2 1321 5 1324 8 7 2766 0 2773 -7z m2895 6 l27 -1 0 -1320 0 -1320
-1392 2 -1393 3 -3 1317 -2 1317 22 3 c18 2 2630 1 2741 -1z m2934 -5 c4 -4 7
-2550 3 -2628 0 -5 -625 -8 -1390 -8 l-1390 0 0 1319 0 1320 28 3 c51 6 2743
0 2749 -6z m2881 5 l42 -1 0 -1320 0 -1320 -1390 0 c-764 0 -1391 3 -1391 8
-3 14 -6 2627 -4 2632 3 4 2564 5 2743 1z m2957 -1101 c0 -608 -1 -1203 -3
-1322 l-3 -218 -1390 0 -1389 0 0 1318 c0 725 2 1321 5 1323 2 3 629 5 1392 5
l1388 -1 0 -1105z m2915 -216 l0 -1324 -1392 2 -1393 3 -3 1310 c-1 721 0
1315 2 1322 4 9 319 12 1396 12 l1390 -1 0 -1324z m-43722 -2771 l2 -1323
-1395 0 -1395 0 0 1318 c0 725 3 1322 7 1325 3 4 630 6 1392 5 l1386 -3 3
-1322z m2914 105 c2 -673 2 -1269 0 -1326 l-3 -102 -1392 2 -1392 3 -1 1315
c0 723 1 1318 3 1323 2 4 629 7 1394 7 l1389 0 2 -1222z m2913 -103 l0 -1320
-115 -5 c-63 -3 -690 -4 -1392 -2 l-1278 2 0 1318 c0 725 3 1322 7 1325 3 4
630 6 1392 5 l1386 -3 0 -1320z m2915 0 l0 -1325 -1390 0 -1390 0 -1 98 c-1
100 0 2545 0 2549 1 2 627 3 1391 3 l1390 0 0 -1325z m2915 0 l0 -1320 -1392
-3 -1393 -2 0 1318 c0 725 3 1322 7 1325 3 4 630 6 1392 4 l1386 -2 0 -1320z
m2915 0 l0 -1325 -1392 2 -1393 3 -2 1310 c-1 721 0 1316 2 1323 4 9 291 12
1395 12 l1390 0 0 -1325z m2913 20 c-2 -715 -3 -1310 -3 -1322 l0 -23 -1390 0
-1390 0 0 1325 0 1325 1393 -2 1392 -3 -2 -1300z m2917 -20 l0 -1325 -1390 0
-1390 0 0 138 c-4 1535 -4 2504 -1 2508 2 2 629 4 1393 4 l1388 0 0 -1325z
m2915 1303 c3 -13 4 -608 3 -1323 l-3 -1300 -1392 -3 -1393 -2 0 1318 c0 725
3 1322 7 1325 3 4 629 7 1389 7 l1384 0 5 -22z m2913 -1306 l2 -1322 -1391 2
-1391 3 -3 1315 c-2 723 -1 1318 2 1323 2 4 628 6 1391 5 l1387 -3 3 -1323z
m2914 23 c-1 -715 -2 -1310 -2 -1322 l0 -23 -1390 0 -1390 0 0 1318 c0 725 3
1322 6 1325 4 4 630 6 1392 4 l1385 -2 -1 -1300z m2916 -23 l2 -1322 -1392 2
-1393 3 -2 1310 c-1 721 0 1316 2 1322 3 10 298 12 1392 10 l1388 -2 3 -1323z
m2907 1318 c4 -7 9 -2322 5 -2617 l0 -23 -1390 0 -1390 0 0 1318 c0 725 3
1322 6 1325 11 11 2763 7 2769 -3z m2923 -1318 l2 -1322 -1392 2 -1393 3 0
1295 c0 712 2 1307 4 1323 l3 27 1387 -2 1386 -3 3 -1323z m2912 935 c1 -729
1 -1941 1 -2099 l-1 -158 -1390 0 -1390 0 0 1318 c0 725 2 1321 5 1324 3 3
629 6 1390 6 l1385 2 0 -393z m2918 -935 l2 -1322 -1392 2 -1393 3 -3 1310
c-1 721 0 1316 3 1323 3 10 284 12 1392 10 l1388 -3 3 -1323z m-43720 -2764
l-3 -1323 -1392 -3 -1393 -2 0 1325 0 1325 1395 0 1395 0 -2 -1322z m2912 -3
l0 -1325 -1392 2 -1393 3 -1 1315 c-1 723 1 1318 3 1323 2 4 629 7 1394 7
l1389 0 0 -1325z m2915 0 l0 -1320 -1392 -3 -1393 -2 0 1318 c0 725 3 1322 7
1325 3 4 630 6 1392 5 l1386 -3 0 -1320z m2915 0 l0 -1325 -1390 0 c-1105 0
-1390 3 -1390 13 -1 16 -1 2008 -1 2360 l1 277 1390 0 1390 0 0 -1325z m2915
0 l0 -1320 -1392 -3 -1393 -2 0 1325 0 1325 1393 -2 1392 -3 0 -1320z m2915 0
l0 -1325 -1392 2 -1393 3 -1 1315 c-1 723 0 1318 3 1323 2 4 629 7 1394 7
l1389 0 0 -1325z m2912 1293 c3 -18 4 -613 4 -1323 l-1 -1290 -1390 0 -1390 0
-3 1310 c-1 721 0 1316 3 1323 3 9 290 12 1389 12 l1384 0 4 -32z m2916 -1295
l2 -1323 -1390 0 -1390 0 -1 38 c-1 33 0 2586 1 2605 0 4 624 6 1388 5 l1387
-3 3 -1322z m2917 2 l0 -1320 -1392 -3 -1393 -2 0 1325 0 1325 1393 -2 1392
-3 0 -1320z m2915 0 l0 -1325 -1389 0 -1389 0 -6 28 c-6 34 -6 2557 1 2595 l5
27 1389 0 1389 0 0 -1325z m2911 1318 c3 -29 4 -2621 1 -2630 -3 -10 -291 -13
-1393 -13 l-1389 0 0 1325 0 1325 1390 0 c765 0 1390 -3 1391 -7z m2917 -1321
l2 -1322 -1392 2 -1393 3 -2 1310 c-2 721 -1 1316 2 1323 3 10 287 12 1392 10
l1388 -3 3 -1323z m2913 1281 c0 -50 0 -2430 -1 -2540 l0 -63 -1390 0 -1390 0
0 1318 c0 725 3 1322 7 1325 3 4 629 7 1390 7 l1383 0 1 -47z m2919 -1278 l0
-1325 -1390 0 -1390 0 -2 173 c-4 356 -5 2462 -1 2470 2 4 629 7 1394 7 l1389
0 0 -1325z m2910 1158 c1 -140 0 -807 0 -2265 l0 -218 -1390 0 -1390 0 0 1325
0 1325 1390 0 1390 0 0 -167z m2920 -1158 l0 -1325 -1392 2 -1393 3 -2 1310
c-2 721 -1 1316 2 1323 3 9 292 12 1395 12 l1390 0 0 -1325z m-43720 -2770 l0
-1325 -1395 0 -1395 0 0 1325 0 1325 1395 0 1395 0 0 -1325z m2910 0 l0 -1325
-1391 2 -1391 3 -3 1315 c-2 723 -1 1318 2 1323 2 4 629 7 1394 7 l1389 0 0
-1325z m2915 0 l0 -1320 -1392 -3 -1393 -2 0 1325 0 1325 1393 -2 1392 -3 0
-1320z m2915 0 l0 -1325 -1390 0 -1390 0 0 293 c-1 951 -1 2204 -1 2275 l1 82
1390 0 1390 0 0 -1325z m2915 0 l0 -1320 -1392 -3 -1393 -2 0 1325 0 1325
1393 -2 1392 -3 0 -1320z m2915 0 l0 -1325 -1390 0 -1390 0 0 48 c-1 110 -2
2588 -1 2595 1 4 627 7 1391 7 l1390 0 0 -1325z m2915 1303 c2 -13 4 -608 2
-1323 l-2 -1300 -1392 -3 -1393 -2 0 1325 0 1325 1390 0 1390 0 5 -22z m2915
-1303 l0 -1325 -1390 0 c-764 0 -1390 3 -1391 8 -3 28 -5 2629 -2 2635 2 4
629 7 1394 7 l1389 0 0 -1325z m2915 0 l0 -1320 -1392 -3 -1393 -2 0 1325 0
1325 1393 -2 1392 -3 0 -1320z m2915 0 l0 -1325 -1392 2 -1393 3 -2 1310 c-1
721 0 1316 2 1323 4 9 291 12 1395 12 l1390 0 0 -1325z m2915 50 c1 -698 -1
-1294 -3 -1322 l-4 -53 -1389 0 -1389 0 0 1325 0 1325 1392 -2 1393 -3 0
-1270z m2915 -50 l0 -1325 -1392 2 -1393 3 -3 1310 c-1 721 0 1316 3 1323 3 9
292 12 1395 12 l1390 0 0 -1325z m2911 1188 c0 -76 1 -671 1 -1323 l0 -1185
-1391 -3 -1391 -2 0 1325 0 1325 1390 0 1390 0 1 -137z m2919 -1188 l0 -1325
-1392 2 -1393 3 -1 1305 c-1 718 1 1313 3 1323 4 16 79 17 1394 17 l1389 0 0
-1325z m2910 1318 c0 -5 0 -600 1 -1323 l0 -1315 -1390 -3 -1391 -2 0 1325 0
1325 1390 0 c765 0 1390 -3 1390 -7z m2915 -1318 l0 -1320 -1390 0 -1390 0 -3
1310 c-1 721 0 1316 3 1323 3 10 287 12 1392 10 l1388 -3 0 -1320z"/>
</g>
</svg>
