<svg fill="none" height="96" viewBox="0 0 96 96" width="96" xmlns="http://www.w3.org/2000/svg" xmlns:xlink="http://www.w3.org/1999/xlink"><clipPath id="a"><path d="m0 0h96v96h-96z"/></clipPath><mask id="b" height="96" maskUnits="userSpaceOnUse" width="96" x="0" y="0"><path d="m72.3746 2.06475c-5.414-1.24951-14.3136-2.06475-24.3746-2.06475-10.0611 0-18.9607.81524-24.3747 2.06475-10.7946 2.26519-19.29536 10.76595-21.56055 21.56055-1.24951 5.4141-2.06475 14.3137-2.06475 24.3747 0 10.0611.81524 18.9606 2.06475 24.3747 2.26519 10.7946 10.76595 19.2954 21.56055 21.5606 5.414 1.2495 14.3136 2.0647 24.3747 2.0647 10.061 0 18.9606-.8152 24.3746-2.0647 10.7947-2.2652 19.2955-10.766 21.5606-21.5606 1.2495-5.4141 2.0648-14.3136 2.0648-24.3747 0-10.061-.8153-18.9606-2.0648-24.3747-2.2651-10.7946-10.7659-19.29536-21.5606-21.56055z" fill="#fff"/></mask><g clip-path="url(#a)"><g mask="url(#b)"><path d="m72.3746 2.06475c-5.414-1.24951-14.3136-2.06475-24.3746-2.06475-10.0611 0-18.9607.81524-24.3747 2.06475-10.7946 2.26519-19.29536 10.76595-21.56055 21.56055-1.24951 5.4141-2.06475 14.3137-2.06475 24.3747 0 10.0611.81524 18.9606 2.06475 24.3747 2.26519 10.7946 10.76595 19.2954 21.56055 21.5606 5.414 1.2495 14.3136 2.0647 24.3747 2.0647 10.061 0 18.9606-.8152 24.3746-2.0647 10.7947-2.2652 19.2955-10.766 21.5606-21.5606 1.2495-5.4141 2.0648-14.3136 2.0648-24.3747 0-10.061-.8153-18.9606-2.0648-24.3747-2.2651-10.7946-10.7659-19.29536-21.5606-21.56055z" fill="#00bd82"/><path d="m59.5334 73.6917c-.9109-2.1682-2.8443-3.8009-5.1968-4.2945-1.4077-.3249-3.7215-.5368-6.3374-.5368s-4.9298.2119-6.3374.5368c-2.3357.4901-4.2583 2.103-5.1772 4.2481-.3187.7439-1.0822 1.1979-1.8901 1.1237-.1998-.0184-.3723-.0348-.5177-.0493-3.7642-.3748-6.723-.8976-8.4419-1.5078-.0028-.0015-.0062-.003-.0102-.0045-1.1536-.4335-1.9744-1.5468-1.9744-2.8519 0-.0324.0005-.0647.0015-.0969.0026-.0525.0057-.1062.0093-.1609.001-.0122.0021-.0244.0032-.0366.0033-.0341.0053-.0672.0062-.0991.293-3.9177 2.6723-13.0897 6.226-23.5586 4.0626-11.968 8.3111-21.657 10.2269-23.5469.3058-.3184.6587-.5851 1.0487-.7907.1522-.087.3451-.1701.5742-.2485.0059-.0021.0119-.0041.018-.0062 1.2587-.4256 3.5785-.7108 6.2325-.7108 2.6588 0 4.9786.2852 6.235.7101.0084.0028.0144.0048.0203.0069.229.0784.422.1615.5742.2485.39.2056.7428.4723 1.0458.7873.001.001.0019.0022.0029.0034 1.9157 1.8899 6.1643 11.5789 10.2269 23.5469 3.5537 10.4689 5.933 19.6409 6.226 23.5586.0008.0319.0029.065.0061.0991.0012.0122.0023.0244.0033.0366.0036.0547.0067.1084.0093.1609.001.0322.0015.0645.0015.0969 0 1.3051-.8208 2.4184-1.9744 2.8519-.004.0015-.0074.003-.0102.0045-1.7174.6096-4.6724 1.1321-8.432 1.5068-.1631.0163-.3604.035-.5917.0561-.7746.0707-1.5058-.3677-1.8064-1.0831z" fill="#fff"/></g></g></svg>