<?xml version="1.0" standalone="no"?>
<!DOCTYPE svg PUBLIC "-//W3C//DTD SVG 20010904//EN"
 "http://www.w3.org/TR/2001/REC-SVG-20010904/DTD/svg10.dtd">
<svg version="1.0" xmlns="http://www.w3.org/2000/svg"
 width="169.000000pt" height="148.000000pt" viewBox="0 0 169.000000 148.000000"
 preserveAspectRatio="xMidYMid meet">

<g transform="translate(0.000000,148.000000) scale(0.100000,-0.100000)"
fill="#000000" stroke="none">
<path d="M640 1199 c0 -5 5 -7 10 -4 6 3 10 8 10 11 0 2 -4 4 -10 4 -5 0 -10
-5 -10 -11z"/>
<path d="M690 1199 c0 -6 11 -8 28 -5 15 3 41 2 57 -3 29 -9 29 -9 -15 -12
l-45 -2 45 -7 c25 -4 37 -8 28 -8 -14 -2 -16 -9 -11 -39 4 -24 3 -34 -4 -30
-6 4 -13 0 -17 -8 -6 -18 10 -30 18 -13 4 10 7 10 12 1 3 -6 14 -21 25 -34 10
-12 19 -30 19 -39 0 -9 13 -29 29 -44 20 -19 27 -34 23 -51 -2 -14 0 -25 6
-25 6 0 14 -9 17 -20 4 -13 15 -20 31 -20 20 0 24 -4 20 -17 -10 -33 7 -41 85
-44 117 -3 173 40 199 154 22 100 -24 200 -115 249 -49 27 -52 28 -242 28
-132 0 -193 -3 -193 -11z"/>
<path d="M391 597 l-1 -238 39 -42 40 -42 248 -1 c136 -1 227 1 201 3 l-48 4
0 243 0 243 -37 7 c-21 3 -127 6 -235 6 l-197 0 -4 28 c-2 15 -5 -80 -6 -211z"/>
<path d="M900 673 c0 -4 5 -15 10 -23 8 -13 10 -13 10 2 0 9 -4 20 -10 23 -5
3 -10 3 -10 -2z"/>
<path d="M930 616 c-15 -42 -11 -55 6 -17 8 19 12 36 9 39 -2 3 -9 -7 -15 -22z"/>
<path d="M897 623 c-4 -3 -7 -11 -7 -17 0 -6 5 -5 12 2 6 6 9 14 7 17 -3 3 -9
2 -12 -2z"/>
<path d="M901 583 c-1 -6 -4 -20 -7 -30 -4 -13 -3 -15 4 -4 7 9 10 0 10 -31 1
-43 28 -125 38 -115 3 3 -2 19 -10 36 -9 16 -16 49 -17 73 0 38 -17 101 -18
71z"/>
<path d="M884 449 c0 -10 4 -19 8 -19 4 0 8 6 8 14 0 8 -4 17 -8 20 -4 2 -8
-4 -8 -15z"/>
<path d="M882 380 c0 -14 2 -19 5 -12 2 6 2 18 0 25 -3 6 -5 1 -5 -13z"/>
<path d="M911 384 c0 -11 3 -14 6 -6 3 7 2 16 -1 19 -3 4 -6 -2 -5 -13z"/>
<path d="M972 384 c10 -10 20 -16 22 -13 3 3 -5 11 -17 18 -21 13 -21 12 -5
-5z"/>
</g>
</svg>
